<svg xmlns="http://www.w3.org/2000/svg" width="40.045" height="40.013" viewBox="0 0 40.045 40.013"><defs><style>.a{fill:#fbfbfb;}</style></defs><g transform="translate(0 -0.2)"><g transform="translate(15.624 15.792)"><path class="a" d="M204.739,198.442a4.355,4.355,0,0,0-7.113,0,4.512,4.512,0,0,0-.826,2.572,4.382,4.382,0,0,0,8.765,0A4.512,4.512,0,0,0,204.739,198.442Z" transform="translate(-196.8 -196.6)"/></g><g transform="translate(9.844 17.666)"><path class="a" d="M140.482,220.2a6.244,6.244,0,0,1,.508,2.541,6.828,6.828,0,1,1-13.655,0,6.134,6.134,0,0,1,.508-2.541H124v10.194a2.578,2.578,0,0,0,2.509,2.509h15.307a2.578,2.578,0,0,0,2.509-2.509V220.2Z" transform="translate(-124 -220.2)"/></g><g transform="translate(25.342 10.584)"><path class="a" d="M322.884,131.032H319.2v4.224h4.192V131Z" transform="translate(-319.2 -131)"/></g><g transform="translate(0 0.2)"><path class="a" d="M29.978.2H10.035A10.056,10.056,0,0,0,0,10.235V30.21a10.05,10.05,0,0,0,10.035,10H30.01A10.056,10.056,0,0,0,40.045,30.178V10.235A10.1,10.1,0,0,0,29.978.2Zm2.413,17.434h0V27.86a4.664,4.664,0,0,1-4.732,4.732H12.353A4.664,4.664,0,0,1,7.622,27.86V12.553a4.664,4.664,0,0,1,4.732-4.732H27.66a4.664,4.664,0,0,1,4.732,4.732Z" transform="translate(0 -0.2)"/></g></g></svg>